<svg width="42" height="42" xmlns="http://www.w3.org/2000/svg"><g fill="none" fill-rule="evenodd"><path fill="#FFF" d="M0 42h42V0H0z"/><path fill="#FFF" d="M10.35 16.625l-3.23 2.423 1.615 18.577 2.423 2.423H31.35l2.423-2.423.808-17.77-1.616-3.23z"/><path d="M34.58 17.433l-3.23-.808-2.096.938h-18.9a2.514 2.514 0 00-2.386 1.749c.245-.079.5-.134.77-.134h21.226c1.365 0 2.52 1.12 2.524 2.424l-1.565 16.369v.018c0 .272-.055.528-.134.773a2.516 2.516 0 001.749-2.388v-.019l1.428-14.935.537-.138.078-3.85z" fill="#DEE0E2"/><path fill="#A1F4C0" d="M23.273 27.125L20.85 25.51l-2.423 1.615.808 7.27h4.038z"/><path d="M21.916 33.183h-1.9l-.58-4.904a1.54 1.54 0 011.529-1.493c.825 0 1.512.67 1.534 1.464l-.583 4.933zm-.951-8.416a3.554 3.554 0 00-3.55 3.55c0 .037.003.076.008.118l.695 5.876c.06.507.492.891 1.003.891h3.693c.51 0 .942-.384 1.004-.892l.692-5.873a1 1 0 00.007-.12 3.555 3.555 0 00-3.552-3.55z" fill="#4D535B"/><path d="M30.788 38.763c-.244.079-.5.133-.77.133H11.916c-1.411 0-2.52-1.142-2.524-2.618L7.835 20.083c0-.27.054-.527.133-.771a2.514 2.514 0 012.386-1.749h21.225c.107 0 .208.018.312.032 1.159.147 2.093 1.084 2.192 2.207.006.062.02.122.02.185L32.54 36.356l-.001.018c0 1.12-.738 2.06-1.75 2.389zM14.852 9.033a6.08 6.08 0 011.061-3.438 6.112 6.112 0 016.323-2.543 6.133 6.133 0 014.845 5.982v6.51H14.852v-6.51zm16.727 6.51H29.1v-6.51C29.1 4.55 25.452.9 20.967.9c-2.654 0-5.008 1.283-6.493 3.256a8.082 8.082 0 00-1.641 4.879v6.51h-2.479c-1.205 0-2.338.47-3.19 1.324a4.545 4.545 0 00-.691.921 4.664 4.664 0 00-.653 2.39l1.557 16.195a4.56 4.56 0 004.538 4.54l18.103.001a4.51 4.51 0 002.302-.645 4.58 4.58 0 00.926-.697c.845-.846 1.31-1.955 1.307-3.103l1.566-16.387a4.545 4.545 0 00-4.54-4.54z" fill="#4D535B"/></g></svg>