<svg width="42" height="42" xmlns="http://www.w3.org/2000/svg"><g fill="none" fill-rule="evenodd"><path fill="#FFF" d="M0 42h42V0H0z"/><path fill="#FFF" d="M1.414 37.03h38.77V10.376H1.413z"/><path fill="#FFF" d="M24.03 12.8h-5.654l-.808-8.885h7.27z"/><path fill="#DEE0E2" d="M2.222 12.8h16.154v-2.424H2.222zm34.731-2.424H24.03V12.8h12.923v25.039h2.423V10.376z"/><path fill="#A1F4C0" d="M24.03 12.8h-5.654l-.808-8.885h7.27z"/><path d="M7.682 29.703c4.486-1.76 5.043-2.492 5.246-3.146.03-.098.046-.2.046-.3v-.707c0-.266-.103-.516-.289-.706-.354-.362-.633-.879-.805-1.493a1.002 1.002 0 00-.39-.554.137.137 0 01-.02-.2c.146-.18.227-.406.227-.638v-1.585c0-1.19.63-1.747 1.984-1.747 1.373 0 1.985.54 1.985 1.747v1.584c0 .231.08.457.225.636.024.03.035.058.035.09 0 .046-.02.088-.052.111a1.005 1.005 0 00-.392.555c-.173.615-.451 1.132-.806 1.494a1.008 1.008 0 00-.287.706v.708c0 .1.014.2.045.3.204.655.762 1.388 5.246 3.145v.921H7.682v-.92zm13.053-1.756c-3.032-1.172-4.012-1.775-4.322-2.021a5.55 5.55 0 00.922-1.734 2.158 2.158 0 00.35-2.531v-1.287c0-2.358-1.497-3.766-4.004-3.766-2.47 0-4.003 1.443-4.003 3.766v1.286a2.159 2.159 0 00.348 2.53c.22.662.53 1.245.923 1.735-.312.247-1.293.85-4.32 2.02a1.523 1.523 0 00-.967 1.414v1.77c0 .835.676 1.514 1.506 1.514h13.026a1.51 1.51 0 001.505-1.513v-1.77a1.52 1.52 0 00-.964-1.413z" fill="#4D535B"/><path d="M22.796 12.387a.416.416 0 01-.414.367h-2.55a.417.417 0 01-.413-.366l-.846-7.148a.418.418 0 01.414-.467h4.242c.12 0 .232.05.31.138.08.09.117.21.103.328l-.846 7.148zm16.129-1.275v25.31H2.735v-25.31h14.5l.18 1.513a2.436 2.436 0 002.417 2.149h2.55a2.435 2.435 0 002.419-2.15l.179-1.512h13.945zm1.01-2.019H25.218l.428-3.617a2.44 2.44 0 00-.598-1.905 2.44 2.44 0 00-1.82-.818h-4.242a2.435 2.435 0 00-2.42 2.722l.429 3.618H1.725a1.01 1.01 0 00-1.01 1.01v27.33c0 .556.453 1.01 1.01 1.01h38.21c.556 0 1.009-.454 1.009-1.01v-27.33a1.01 1.01 0 00-1.01-1.01z" fill="#4D535B"/><path d="M34.87 25.554H24.26a1.011 1.011 0 000 2.02h10.61a1.011 1.011 0 000-2.02m-11.619-3.498c0 .557.453 1.01 1.01 1.01h10.61a1.011 1.011 0 000-2.02H24.26c-.557 0-1.01.454-1.01 1.01" fill="#4D535B"/></g></svg>