<svg width="42" height="42" xmlns="http://www.w3.org/2000/svg"><g fill="none" fill-rule="evenodd"><path fill="#FFF" d="M0 42h42V0H0z"/><path d="M15.2 4.79s0 16.154-6.46 25.038H2.277l.807 4.039L7.93 36.29l22.616.807 3.23-2.423 3.231-8.884L40.24 5.597 15.201 4.79z" fill="#FFF"/><path d="M31.018 35.88c2.722-1.281 6.242-10.732 7.96-29.369l-22.834-.67c-.037.44-.089 1.004-.155 1.658l21.374.628C35.971 23.23 33.393 32.3 31.018 35.88" fill="#DEE0E2"/><path d="M23.726 36.02c-5.01-.057-10.743-.135-14.559-.225-2.55-.06-4.155-2.003-5.084-3.737a13.05 13.05 0 01-.744-1.67l19.765.458a.995.995 0 01.124.187c1.053 2.195 2.097 3.89 3.067 5.015-.825-.009-1.684-.017-2.569-.028M40.833 4.862a1.008 1.008 0 00-.724-.339L15.25 3.796a.923.923 0 00-.698.23c-.203.175-.33.435-.348.712-.002.017-.019.264-.055.688-.239 2.852-1.331 13.918-4.278 20.243a1.004 1.004 0 00.488 1.341c.061.028.128.032.192.047a.98.98 0 00.58-.013c.254-.093.456-.278.57-.522 2.641-5.671 3.831-14.557 4.287-19.023.066-.654.118-1.217.155-1.658l22.834.67c-1.718 18.637-5.239 28.087-7.96 29.368a1.613 1.613 0 01-.395.137c-1.526.283-3.633-2.126-5.78-6.599a1.003 1.003 0 00-.886-.572l-14.205-.328-1.193-.028-6.566-.152c-.323.01-.604.129-.802.365a1.01 1.01 0 00-.21.856c.009.04.043.189.103.412.118.436.349 1.177.72 2.035l-.08-.002c.593 1.631 2.073 4.684 4.925 5.293.736.298 1.55.495 2.47.518 7.222.171 21.1.292 21.225.293a.984.984 0 00.356-.065c.095-.01.19-.022.286-.04.486-.089.949-.301 1.392-.6 5.852-3.953 8.125-25.018 8.707-31.783a1.014 1.014 0 00-.252-.757" fill="#4D535B"/><path d="M20.274 13.216l12.684.447h.035c.546 0 .99-.428 1.009-.974a1 1 0 00-.27-.724 1.002 1.002 0 00-.703-.32l-12.688-.448h-.016a1.01 1.01 0 10-.05 2.02m-1.907 4.691a1.014 1.014 0 00.974 1.046l11.891.417c.546 0 .99-.428 1.01-.975a1 1 0 00-.271-.723 1.002 1.002 0 00-.703-.32l-11.858-.418h-.027c-.552 0-.996.423-1.016.973m-1.18 5.053a1.005 1.005 0 00-.321.706 1.005 1.005 0 00.973 1.044l6.803.24c.546 0 .989-.428 1.008-.975a1.006 1.006 0 00-.974-1.044l-6.766-.239a1.046 1.046 0 00-.723.268" fill="#4D535B"/></g></svg>