<svg width="42" height="42" xmlns="http://www.w3.org/2000/svg"><g fill="none" fill-rule="evenodd"><path fill="#FFF" d="M0 42h42V0H0z"/><path d="M32.373 17.83v-.02c0-4.442-3.634-8.077-8.077-8.077H9.758c-4.442 0-8.077 3.635-8.077 8.077s3.635 8.077 8.077 8.077h.829c-.007.135-.021.267-.021.404 0 4.664 3.817 8.48 8.48 8.48H31.97c4.664 0 8.48-3.816 8.48-8.48 0-4.529-3.6-8.248-8.077-8.46" fill="#FFF"/><path d="M30.758 12.964L26.72 9.733h-3.23l-.376.752h-12.61a7.226 7.226 0 00-5.857 3 7.185 7.185 0 014.24-1.385h13.664c3.085 0 5.719 1.944 6.76 4.669a.996.996 0 01.744.956 1 1 0 01-.324.732c.036.29.06.583.06.883a7.194 7.194 0 01-1.385 4.24 7.226 7.226 0 002.984-5.594l.984-.984-1.616-4.038zm9.692 14.538l-1.615-5.654-2.423-2.423H34.98c-.152-.081-.3-.167-.458-.24v-.001a1.006 1.006 0 00-1.29.424c-.037.175-.088.345-.134.517.003.11.013.218.051.324a1 1 0 00.524.567 7.268 7.268 0 014.2 6.572 7.19 7.19 0 01-1.385 4.24 7.229 7.229 0 003-5.855c0-.06-.011-.118-.013-.178l.976 1.707z" fill="#DEE0E2"/><path d="M7.355 24.246a7.286 7.286 0 01-4.092-6.521 7.19 7.19 0 011.384-4.24 7.23 7.23 0 015.856-3h13.663a7.19 7.19 0 011.604.185 9.294 9.294 0 015.45 5.45c.118.517.186 1.052.186 1.605a7.227 7.227 0 01-3 5.855 7.195 7.195 0 01-4.24 1.384H13.7a1.01 1.01 0 00-1.01 1.01.99.99 0 00.224.605.99.99 0 00.786.404h10.465a9.205 9.205 0 005.68-1.963 9.27 9.27 0 003.253-4.895c.046-.171.097-.341.133-.518a9.27 9.27 0 00.193-1.882c0-5.107-4.153-9.26-9.26-9.26h-13.66c-2.964 0-5.6 1.405-7.296 3.58a9.202 9.202 0 00-1.963 5.68c0 1.15.221 2.27.624 3.313a9.312 9.312 0 004.607 5.025 1.008 1.008 0 001.35-.469c.24-.5.03-1.105-.47-1.348" fill="#4D535B"/><path d="M36.137 17.57v-.002a1.013 1.013 0 00-1.34.492c-.114.246-.125.52-.032.773a1 1 0 00.523.568c2.016.935 3.454 2.747 3.974 4.851a7.17 7.17 0 01.226 1.721 7.227 7.227 0 01-3 5.856 7.185 7.185 0 01-4.24 1.384H18.585c-3.086 0-5.719-1.943-6.76-4.667a7.164 7.164 0 01-.42-1.692 7.205 7.205 0 01-.06-.88c0-1.585.518-3.047 1.385-4.241a7.228 7.228 0 015.855-3h10.46a.997.997 0 00.686-.276 1 1 0 00.324-.733.996.996 0 00-.745-.955c-.086-.024-.171-.054-.265-.054h-10.46c-2.964 0-5.6 1.406-7.296 3.579a9.202 9.202 0 00-1.963 5.68c0 1.134.215 2.215.59 3.22a7.255 7.255 0 005.45 5.45 9.186 9.186 0 003.219.589h13.663a9.2 9.2 0 005.68-1.964c2.174-1.695 3.579-4.332 3.579-7.296a9.293 9.293 0 00-5.37-8.404" fill="#4D535B"/></g></svg>