<svg width="42" height="42" xmlns="http://www.w3.org/2000/svg"><g fill="none" fill-rule="evenodd"><path fill="#FFF" d="M0 42h42V0H0z"/><path fill="#FFF" d="M24.08 35.202l-22.615-.808.808-5.653 11.308-5.654v-2.423L10.35 15.01v-4.04l2.423-7.269 5.654-1.615 5.651 3.198.81 6.494v2.423l-1.615 4.846-.808 2.423-.807.808 1.433 2.478 2.605 8.83z"/><path d="M24.888 12.587h-1.264V8.949c0-.432-.045-.828-.109-1.208h.566V4.51h-.808v-.808h-4.038v.053c-.46-.07-.94-.12-1.47-.12-2.524 0-4.287.846-5.182 2.426.927-.533 2.121-.81 3.566-.81 3.833 0 5.86 1.837 5.86 5.313V14.2c0 .232.08.458.225.637a1.626 1.626 0 01-.303 2.353c-.191.134-.33.332-.393.555-.452 1.62-1.203 3.001-2.172 3.991-.186.19-.287.442-.287.706v1.625a1.01 1.01 0 002.019 0v-.828a.992.992 0 01-.404-.787v-1.625c0-.264.102-.516.288-.706.968-.99 1.72-2.37 2.171-3.991.063-.224.202-.422.393-.556a1.57 1.57 0 00.49-.564h.852v-2.423z" fill="#DEE0E2"/><path d="M40.235 29.952a9.288 9.288 0 01-9.289 9.289 9.288 9.288 0 01-9.288-9.289 9.288 9.288 0 019.288-9.288 9.288 9.288 0 019.289 9.288" fill="#FFF"/><path d="M40.235 29.952a9.288 9.288 0 01-9.289 9.289 9.288 9.288 0 01-9.288-9.289 9.288 9.288 0 019.288-9.288 9.288 9.288 0 019.289 9.288" fill="#A1F4C0"/><path d="M30.983 37.814c-4.432 0-8.038-3.607-8.038-8.04 0-4.432 3.606-8.037 8.038-8.037 4.434 0 8.042 3.605 8.042 8.037 0 4.433-3.608 8.04-8.042 8.04m0-18.097c-5.545 0-10.057 4.512-10.057 10.057 0 5.547 4.512 10.06 10.057 10.06 5.547 0 10.06-4.513 10.06-10.06 0-5.545-4.513-10.057-10.06-10.057" fill="#4D535B"/><path d="M36.075 28.861H32.1v-3.974a1.01 1.01 0 00-2.02 0v3.974h-3.974a1.011 1.011 0 000 2.02h3.975v3.975a1.01 1.01 0 002.02 0L32.1 30.88h3.975a1.011 1.011 0 000-2.02M25.642 12.256V8.95c0-4.66-2.87-7.333-7.878-7.333-3.084 0-5.392 1.07-6.69 2.995-.777 1.155-1.191 2.616-1.191 4.338v3.309a3.613 3.613 0 00-.598 1.992c0 .586.151 1.148.409 1.655.013.516.258.995.671 1.285.19.134.33.332.392.555.433 1.551 1.147 2.873 2.057 3.853v.639c-.12.18-.49.56-1.616 1.219-1.444.844-4.137 2.15-9.15 4.088a2.175 2.175 0 00-1.306 1.493 2.154 2.154 0 00-.072.53v4.062c0 .469.153.9.404 1.255v.36c0 .081.058.148.13.148h.374c.352.252.779.404 1.241.404h17.336a1.01 1.01 0 000-2.02H2.819c-.071 0-.13-.066-.13-.147v-4.062a.15.15 0 01.088-.14c5.71-2.207 8.698-3.686 10.28-4.774 1.168-.802 1.572-1.392 1.732-1.902.03-.099.044-.2.044-.3v-1.624c0-.266-.102-.517-.287-.706-.97-.991-1.722-2.372-2.174-3.991a1.013 1.013 0 00-.392-.556 1.615 1.615 0 01-.676-1.324c0-.47.203-.819.373-1.028.145-.18.225-.405.225-.636V8.949c0-1.14.235-2.103.68-2.889.896-1.58 2.658-2.425 5.182-2.425.768 0 1.46.077 2.082.224 1.953.458 3.17 1.633 3.599 3.47a7.12 7.12 0 01.178 1.62v3.636c0 .232.081.459.226.636.06.074.12.17.178.277.103.189.185.426.19.715.001.012.005.024.005.037 0 .532-.252 1.027-.676 1.324-.19.134-.33.333-.393.556-.452 1.62-1.203 3-2.172 3.99a1.008 1.008 0 00-.287.707v1.625c0 .324.164.601.404.786.17.132.374.223.605.223a1.01 1.01 0 001.01-1.01v-1.227c.997-1.124 1.788-2.584 2.291-4.232a3.63 3.63 0 001.237-2.742c0-.71-.207-1.399-.599-1.994" fill="#4D535B"/></g></svg>