<svg width="32" height="43" xmlns="http://www.w3.org/2000/svg"><g fill="none" fill-rule="evenodd"><path d="M-6 43.189h44V-.962H-6z"/><path fill="#FFF" d="M5.425 1.325H2.886L1.194 3.872v30.566l.846 2.547 5.923.85v3.396l4.23-2.548 3.386 1.699.846-2.548h11l2.538-.849.846-2.547V3.872l-2.28-2.587z"/><path d="M29.963 2.174h-.846v-.849h-4.23v.52H3.152c-.542 0-1.055.112-1.536.29v1.737s1.348-.062 1.536-.062h22.31c1.4 0 2.54 1.143 2.54 2.548v20.165c0 .842-.457 1.57-1.13 1.972h3.089V6.358c0-.27-.035-.53-.08-.788h.082V2.174z" fill="#DEE0E2"/><path fill="#A1F4C0" d="M8.81 32.74l-.847 7.642 3.986-1.59 4.476 2.439v-8.49z"/><path d="M9.189 39.31v-5.37h6.127v5.408l-2.58-1.58a.975.975 0 00-1.02 0L9.19 39.309zm8.085-2.53v-2.84h10.129c.843 0 1.63-.252 2.291-.68v.972a2.546 2.546 0 01-2.54 2.548h-9.88zm-12.43 0a2.546 2.546 0 01-2.539-2.548V31.39c0-1.268 1.028-2.3 2.291-2.3h22.807c.843 0 1.63-.252 2.291-.68v1.266c0 1.268-1.027 2.3-2.291 2.3H6.475c-.54 0-.98.44-.98.983a.98.98 0 00.98.981h.756v2.841H4.844zm-2.539-8.976V4.66a2.547 2.547 0 012.54-2.549h1.09V26.73c0 .14.03.274.084.395H4.597c-.844 0-1.63.251-2.292.679zm5.504-.68a.987.987 0 00.083-.394V2.11h19.263c1.4 0 2.54 1.144 2.54 2.55v20.163c0 1.27-1.028 2.3-2.292 2.3H7.809zM27.155.149H4.845C2.365.148.348 2.172.348 4.66v29.572c0 2.489 2.017 4.513 4.497 4.513h2.386v2.311a.985.985 0 00.979.982.972.972 0 00.509-.143l3.506-2.14 3.561 2.181a.978.978 0 001.488-.84v-2.351h9.88c2.481 0 4.498-2.024 4.498-4.513V4.66c0-2.488-2.017-4.512-4.497-4.512z" fill="#4D535B"/></g></svg>