<svg width="40" height="40" xmlns="http://www.w3.org/2000/svg"><g fill="none" fill-rule="evenodd"><path d="M-.833 40.375h41.208V-.832H-.833z"/><path d="M38.127 19.87c0 10.285-8.337 18.623-18.622 18.623C9.219 38.493.882 30.155.882 19.87.882 9.585 9.22 1.248 19.505 1.248c10.285 0 18.622 8.337 18.622 18.622" fill="#FFF"/><path d="M8.807 4.417c-.34.903-1.464.908-2.378 1.585-1.217.903-1.525 2.597-1.587 3.993a17.4 17.4 0 0113.474-6.37c9.628 0 17.434 7.806 17.434 17.434a17.37 17.37 0 01-4.668 11.868 5.043 5.043 0 012.29.019c.21.05.42.123.631.206a19.722 19.722 0 004.124-12.093c0-10.942-8.87-19.811-19.811-19.811-3.414 0-6.625.863-9.429 2.383a1.77 1.77 0 01-.08.786" fill="#DEE0E2"/><path d="M19.77 37.491a17.52 17.52 0 01-10.491-3.454c6.133-2.642 7.264-3.946 7.553-4.871a.983.983 0 00.045-.296v-1.638a.98.98 0 00-.283-.694c-.981-1.003-1.743-2.401-2.2-4.043a.996.996 0 00-.385-.543 1.663 1.663 0 01-.694-1.362c0-.483.207-.84.381-1.054a.995.995 0 00.221-.625v-3.672c0-3.478 2.112-5.394 5.947-5.394 3.888 0 5.944 1.866 5.944 5.394v3.672c0 .227.08.448.222.625.175.213.382.571.382 1.054a1.66 1.66 0 01-.695 1.362.996.996 0 00-.384.543c-.459 1.64-1.22 3.038-2.201 4.043a.991.991 0 00-.282.694v1.638c0 .101.015.2.045.296.3.967 1.419 2.221 7.436 4.821a17.52 17.52 0 01-10.56 3.504M7.575 32.608a17.784 17.784 0 01-5.523-12.837c0-9.769 7.949-17.719 17.719-17.719 9.77 0 17.72 7.95 17.72 17.72 0 4.868-1.942 9.403-5.469 12.782-5.793-2.432-6.958-3.557-7.19-3.898V27.62c1.008-1.134 1.809-2.61 2.317-4.278a3.635 3.635 0 001.245-2.753 3.62 3.62 0 00-.605-2.003V15.24c0-4.686-2.888-7.375-7.925-7.375-4.964 0-7.928 2.757-7.928 7.375v3.35a3.64 3.64 0 00-.602 2.001c0 1.063.451 2.063 1.242 2.753.509 1.667 1.31 3.144 2.32 4.278v1.035c-.235.343-1.417 1.482-7.32 3.952M19.77.071C8.908.071.07 8.909.07 19.771c0 10.864 8.837 19.702 19.7 19.702s19.7-8.838 19.7-19.702c0-10.862-8.837-19.7-19.7-19.7" fill="#4D535B"/></g></svg>