<svg width="41" height="39" xmlns="http://www.w3.org/2000/svg"><g fill="none" fill-rule="evenodd"><path d="M-.36 40h41.207V-1H-.36z"/><path fill="#FFF" d="M7.27 1.497L.93 9.382l.793 3.154 3.17.788v23.654H35.8V13.324l2.377-.788 1.585-3.154-6.34-7.885z"/><path fill="#DEE0E2" d="M5.686 4.65h29.32V2.287H5.687zm4.754 20.5h7.133v-2.364H10.44z"/><path fill="#DEE0E2" d="M15.195 37.766h2.378v-14.98h-2.378zm18.227 0h2.377V13.325h-2.377z"/><path fill="#A1F4C0" d="M10.44 36.978h7.133v-14.98H10.44zm12.68-9.462h7.132v-5.519H23.12z"/><g fill="#4D535B"><path d="M11.523 36.346h5.295V23.121h-5.295v13.225zm24.584-20.875a.99.99 0 00-.99.986v19.89H18.799V22.136a.989.989 0 00-.99-.986h-7.276a.989.989 0 00-.991.986v14.211H5.584v-19.89a.99.99 0 00-.99-.986.989.989 0 00-.99.986v20.876c0 .543.443.985.99.985h31.513a.989.989 0 00.991-.985V16.457a.989.989 0 00-.99-.986z"/><path d="M24.087 26.792h4.876v-3.67h-4.876v3.67zm5.868-5.642h-6.858a.99.99 0 00-.99.986v5.643a.99.99 0 00.99.985h6.858a.99.99 0 00.99-.985v-5.643a.99.99 0 00-.99-.986zM4.9 12.505c-1.441 0-2.67-1.098-2.83-2.514l5.757-7.339H32.69l5.728 7.339c-.159 1.416-1.387 2.514-2.83 2.514a2.959 2.959 0 01-1.007-.186 3.002 3.002 0 01-.798-.457.604.604 0 00-.053-.05 2.843 2.843 0 01-.404-.431l-.055-.073a2.807 2.807 0 01-.528-1.634.99.99 0 00-.99-.985.989.989 0 00-.991.986 2.84 2.84 0 01-2.844 2.83 2.842 2.842 0 01-2.848-2.83.989.989 0 00-.99-.986.99.99 0 00-.99.986 2.84 2.84 0 01-2.846 2.83 2.84 2.84 0 01-2.847-2.83.99.99 0 00-.99-.986.989.989 0 00-.991.986 2.84 2.84 0 01-2.844 2.83 2.84 2.84 0 01-2.846-2.83.99.99 0 00-.99-.986.989.989 0 00-.991.986c0 .41-.09.81-.271 1.195a3.077 3.077 0 01-.163.299 2.954 2.954 0 01-.904.903c-.081.05-.166.094-.285.153-.088.041-.176.078-.216.096l.075.18-.154-.154a2.854 2.854 0 01-.927.158M33.175.681H7.344a.988.988 0 00-.78.379L.28 9.068a.981.981 0 00-.21.607c0 2.647 2.166 4.801 4.829 4.801a4.94 4.94 0 001.638-.29 4.442 4.442 0 00.5-.212 4.786 4.786 0 001.693-1.395 4.831 4.831 0 003.84 1.897c1.51 0 2.923-.7 3.835-1.89a4.837 4.837 0 007.674 0 4.84 4.84 0 007.675-.002c.08.106.164.204.213.255.027.034.056.067.116.131.107.112.22.22.334.319l.036.032a4.86 4.86 0 003.135 1.155c2.662 0 4.828-2.154 4.828-4.801a.983.983 0 00-.208-.605l-6.252-8.007a1 1 0 00-.782-.382"/></g></g></svg>